<svg width="118" height="155" viewBox="0 0 118 155" fill="none" xmlns="http://www.w3.org/2000/svg">
<rect width="118" height="155" rx="15" fill="#EB0029"/>
<rect x="23" y="19" width="70" height="70" rx="35" fill="white"/>
<path d="M78.5741 43.1484H52.1262V64.8806H78.5741V43.1484Z" fill="#FD624B"/>
<path opacity="0.3" d="M78.5741 43.1484H52.1262V64.8806H78.5741V43.1484Z" fill="white"/>
<path d="M58.6474 43.1484H38.1494V64.8806H58.6474V43.1484Z" fill="#FD624B"/>
<path opacity="0.1" d="M58.6474 43.1484H38.1494V64.8806H58.6474V43.1484Z" fill="white"/>
<path opacity="0.3" d="M51.2984 43.1484H45.4985V49.9115H51.2984V43.1484Z" fill="white"/>
<path opacity="0.1" d="M72.9388 43.1484H67.1389V49.9115H72.9388V43.1484Z" fill="black"/>
<path d="M67.4536 55.9385H66.6887C66.6766 55.7174 66.6766 55.4958 66.6887 55.2747C66.6887 54.9284 66.955 54.2598 67.4391 54.5629C67.5892 54.6542 67.7635 54.4426 67.6134 54.3512C67.5049 54.2863 67.3818 54.2493 67.2553 54.2433C67.1288 54.2373 67.0028 54.2626 66.8886 54.317C66.7744 54.3713 66.6755 54.453 66.6009 54.5547C66.5263 54.6564 66.4783 54.7749 66.4612 54.8996C66.3966 55.2387 66.3803 55.5852 66.4128 55.9289H65.9722C65.7979 55.9289 65.7495 56.1935 65.9286 56.1983H66.4128C66.4128 56.6216 66.4128 57.0449 66.4128 57.4682C66.4128 57.6461 66.6887 57.6125 66.6887 57.4393C66.6887 57.0256 66.6887 56.6168 66.6887 56.2031H67.4052C67.5843 56.2127 67.6328 55.9434 67.4536 55.9385Z" fill="white"/>
<path d="M68.7219 55.3421C68.7029 55.3374 68.6829 55.3374 68.6638 55.3421C67.41 55.2507 67.6084 57.2902 68.8091 57.2661C69.0656 57.2294 69.2993 57.0994 69.4648 56.9012C69.6303 56.703 69.7158 56.4508 69.7047 56.1935C69.7086 56.0696 69.6848 55.9464 69.6349 55.8327C69.585 55.7191 69.5104 55.6179 69.4164 55.5364C69.3223 55.455 69.2112 55.3953 69.0912 55.3617C68.9711 55.3281 68.8449 55.3214 68.7219 55.3421ZM68.9108 56.9727C68.0054 57.2084 67.715 55.5297 68.6445 55.6307C68.673 55.6385 68.7031 55.6385 68.7316 55.6307C69.6031 55.5008 69.6031 56.7899 68.9108 56.9727Z" fill="white"/>
<path d="M71.7138 55.8472C71.341 54.6446 69.4626 55.6307 70 56.7274C70.1372 56.9425 70.3484 57.1006 70.5942 57.1723C70.8401 57.2439 71.1038 57.2243 71.3362 57.117C71.4526 57.0724 71.5577 57.0026 71.6437 56.9127C71.7296 56.8227 71.7944 56.715 71.8333 56.5971C71.8723 56.4793 71.8843 56.3543 71.8687 56.2313C71.853 56.1082 71.8101 55.9902 71.7429 55.8856L71.7138 55.8472ZM70.2178 56.535C69.9613 55.8039 71.1861 55.092 71.4572 55.9578C71.4602 55.973 71.4666 55.9873 71.4758 55.9997C71.485 56.0122 71.4968 56.0225 71.5105 56.0299C71.9849 56.8717 70.4793 57.295 70.2178 56.535Z" fill="white"/>
<path d="M73.815 57.1747C73.7327 56.0683 73.6552 54.962 73.5729 53.8605C73.5729 53.6825 73.2873 53.7162 73.2969 53.8893L73.3986 55.2843C73.2518 55.237 73.096 55.2238 72.9432 55.2455C72.7904 55.2673 72.6447 55.3235 72.5171 55.4099C72.3896 55.4962 72.2836 55.6104 72.2073 55.7437C72.131 55.877 72.0864 56.0259 72.0769 56.179C72.0382 56.9245 72.9096 57.1795 73.5293 57.0977V57.2035C73.5535 57.3767 73.8295 57.3478 73.815 57.1747ZM72.3626 56.2992C72.3546 56.179 72.3763 56.0586 72.4257 55.9486C72.4751 55.8386 72.5508 55.7422 72.6461 55.6678C72.7415 55.5934 72.8537 55.5432 72.9731 55.5217C73.0924 55.5001 73.2152 55.5078 73.3308 55.544C73.3578 55.5512 73.3862 55.5512 73.4131 55.544C73.447 55.9673 73.4761 56.3906 73.51 56.8187C73.0888 56.8764 72.4255 56.7898 72.3529 56.2992H72.3626Z" fill="white"/>
<path d="M23.3318 117.091C22.6991 117.091 22.1271 116.983 21.6158 116.766C21.1131 116.549 20.7144 116.237 20.4198 115.83C20.1251 115.423 19.9734 114.942 19.9648 114.387H21.9148C21.9408 114.76 22.0708 115.054 22.3048 115.271C22.5474 115.488 22.8768 115.596 23.2928 115.596C23.7174 115.596 24.0511 115.496 24.2938 115.297C24.5364 115.089 24.6578 114.82 24.6578 114.491C24.6578 114.222 24.5754 114.001 24.4108 113.828C24.2461 113.655 24.0381 113.52 23.7868 113.425C23.5441 113.321 23.2061 113.208 22.7728 113.087C22.1834 112.914 21.7024 112.745 21.3298 112.58C20.9658 112.407 20.6494 112.151 20.3808 111.813C20.1208 111.466 19.9908 111.007 19.9908 110.435C19.9908 109.898 20.1251 109.43 20.3938 109.031C20.6624 108.632 21.0394 108.329 21.5248 108.121C22.0101 107.904 22.5648 107.796 23.1888 107.796C24.1248 107.796 24.8831 108.026 25.4638 108.485C26.0531 108.936 26.3781 109.568 26.4388 110.383H24.4368C24.4194 110.071 24.2851 109.815 24.0338 109.616C23.7911 109.408 23.4661 109.304 23.0588 109.304C22.7034 109.304 22.4174 109.395 22.2008 109.577C21.9928 109.759 21.8888 110.023 21.8888 110.37C21.8888 110.613 21.9668 110.816 22.1228 110.981C22.2874 111.137 22.4868 111.267 22.7208 111.371C22.9634 111.466 23.3014 111.579 23.7348 111.709C24.3241 111.882 24.8051 112.056 25.1778 112.229C25.5504 112.402 25.8711 112.662 26.1398 113.009C26.4084 113.356 26.5428 113.811 26.5428 114.374C26.5428 114.859 26.4171 115.31 26.1658 115.726C25.9144 116.142 25.5461 116.476 25.0608 116.727C24.5754 116.97 23.9991 117.091 23.3318 117.091ZM34.9196 109.798V117H33.0866V116.09C32.8526 116.402 32.545 116.649 32.1636 116.831C31.791 117.004 31.3836 117.091 30.9416 117.091C30.3783 117.091 29.88 116.974 29.4466 116.74C29.0133 116.497 28.671 116.146 28.4196 115.687C28.177 115.219 28.0556 114.664 28.0556 114.023V109.798H29.8756V113.763C29.8756 114.335 30.0186 114.777 30.3046 115.089C30.5906 115.392 30.9806 115.544 31.4746 115.544C31.9773 115.544 32.3716 115.392 32.6576 115.089C32.9436 114.777 33.0866 114.335 33.0866 113.763V109.798H34.9196ZM36.2474 113.373C36.2474 112.645 36.3904 111.999 36.6764 111.436C36.971 110.873 37.3654 110.439 37.8594 110.136C38.362 109.833 38.921 109.681 39.5364 109.681C40.0737 109.681 40.5417 109.789 40.9404 110.006C41.3477 110.223 41.6727 110.496 41.9154 110.825V109.798H43.7484V117H41.9154V115.947C41.6814 116.285 41.3564 116.567 40.9404 116.792C40.533 117.009 40.0607 117.117 39.5234 117.117C38.9167 117.117 38.362 116.961 37.8594 116.649C37.3654 116.337 36.971 115.899 36.6764 115.336C36.3904 114.764 36.2474 114.11 36.2474 113.373ZM41.9154 113.399C41.9154 112.957 41.8287 112.58 41.6554 112.268C41.482 111.947 41.248 111.705 40.9534 111.54C40.6587 111.367 40.3424 111.28 40.0044 111.28C39.6664 111.28 39.3544 111.362 39.0684 111.527C38.7824 111.692 38.5484 111.934 38.3664 112.255C38.193 112.567 38.1064 112.94 38.1064 113.373C38.1064 113.806 38.193 114.188 38.3664 114.517C38.5484 114.838 38.7824 115.085 39.0684 115.258C39.363 115.431 39.675 115.518 40.0044 115.518C40.3424 115.518 40.6587 115.436 40.9534 115.271C41.248 115.098 41.482 114.855 41.6554 114.543C41.8287 114.222 41.9154 113.841 41.9154 113.399ZM48.1556 113.399C48.1556 112.654 48.3072 112.004 48.6106 111.449C48.9139 110.886 49.3342 110.452 49.8716 110.149C50.4089 109.837 51.0242 109.681 51.7176 109.681C52.6102 109.681 53.3469 109.906 53.9276 110.357C54.5169 110.799 54.9112 111.423 55.1106 112.229H53.1476C53.0436 111.917 52.8659 111.674 52.6146 111.501C52.3719 111.319 52.0686 111.228 51.7046 111.228C51.1846 111.228 50.7729 111.419 50.4696 111.8C50.1662 112.173 50.0146 112.706 50.0146 113.399C50.0146 114.084 50.1662 114.617 50.4696 114.998C50.7729 115.371 51.1846 115.557 51.7046 115.557C52.4412 115.557 52.9222 115.228 53.1476 114.569H55.1106C54.9112 115.349 54.5169 115.969 53.9276 116.428C53.3382 116.887 52.6016 117.117 51.7176 117.117C51.0242 117.117 50.4089 116.965 49.8716 116.662C49.3342 116.35 48.9139 115.917 48.6106 115.362C48.3072 114.799 48.1556 114.144 48.1556 113.399ZM59.6419 117.117C58.9485 117.117 58.3245 116.965 57.7699 116.662C57.2152 116.35 56.7775 115.912 56.4569 115.349C56.1449 114.786 55.9889 114.136 55.9889 113.399C55.9889 112.662 56.1492 112.012 56.4699 111.449C56.7992 110.886 57.2455 110.452 57.8089 110.149C58.3722 109.837 59.0005 109.681 59.6939 109.681C60.3872 109.681 61.0155 109.837 61.5789 110.149C62.1422 110.452 62.5842 110.886 62.9049 111.449C63.2342 112.012 63.3989 112.662 63.3989 113.399C63.3989 114.136 63.2299 114.786 62.8919 115.349C62.5625 115.912 62.1119 116.35 61.5399 116.662C60.9765 116.965 60.3439 117.117 59.6419 117.117ZM59.6419 115.531C59.9712 115.531 60.2789 115.453 60.5649 115.297C60.8595 115.132 61.0935 114.89 61.2669 114.569C61.4402 114.248 61.5269 113.858 61.5269 113.399C61.5269 112.714 61.3449 112.19 60.9809 111.826C60.6255 111.453 60.1879 111.267 59.6679 111.267C59.1479 111.267 58.7102 111.453 58.3549 111.826C58.0082 112.19 57.8349 112.714 57.8349 113.399C57.8349 114.084 58.0039 114.612 58.3419 114.985C58.6885 115.349 59.1219 115.531 59.6419 115.531ZM73.6779 109.694C74.5619 109.694 75.2726 109.967 75.8099 110.513C76.3559 111.05 76.6289 111.804 76.6289 112.775V117H74.8089V113.022C74.8089 112.459 74.6659 112.03 74.3799 111.735C74.0939 111.432 73.7039 111.28 73.2099 111.28C72.7159 111.28 72.3216 111.432 72.0269 111.735C71.7409 112.03 71.5979 112.459 71.5979 113.022V117H69.7779V113.022C69.7779 112.459 69.6349 112.03 69.3489 111.735C69.0629 111.432 68.6729 111.28 68.1789 111.28C67.6762 111.28 67.2776 111.432 66.9829 111.735C66.6969 112.03 66.5539 112.459 66.5539 113.022V117H64.7339V109.798H66.5539V110.669C66.7879 110.366 67.0869 110.127 67.4509 109.954C67.8236 109.781 68.2309 109.694 68.6729 109.694C69.2362 109.694 69.7389 109.815 70.1809 110.058C70.6229 110.292 70.9652 110.63 71.2079 111.072C71.4419 110.656 71.7799 110.322 72.2219 110.071C72.6726 109.82 73.1579 109.694 73.6779 109.694ZM79.279 108.94C78.9583 108.94 78.6897 108.84 78.473 108.641C78.265 108.433 78.161 108.177 78.161 107.874C78.161 107.571 78.265 107.319 78.473 107.12C78.6897 106.912 78.9583 106.808 79.279 106.808C79.5997 106.808 79.864 106.912 80.072 107.12C80.2887 107.319 80.397 107.571 80.397 107.874C80.397 108.177 80.2887 108.433 80.072 108.641C79.864 108.84 79.5997 108.94 79.279 108.94ZM80.176 109.798V117H78.356V109.798H80.176ZM81.5061 113.373C81.5061 112.645 81.6491 111.999 81.9351 111.436C82.2298 110.873 82.6285 110.439 83.1311 110.136C83.6338 109.833 84.1928 109.681 84.8081 109.681C85.2761 109.681 85.7225 109.785 86.1471 109.993C86.5718 110.192 86.9098 110.461 87.1611 110.799V107.38H89.0071V117H87.1611V115.934C86.9358 116.289 86.6195 116.575 86.2121 116.792C85.8048 117.009 85.3325 117.117 84.7951 117.117C84.1885 117.117 83.6338 116.961 83.1311 116.649C82.6285 116.337 82.2298 115.899 81.9351 115.336C81.6491 114.764 81.5061 114.11 81.5061 113.373ZM87.1741 113.399C87.1741 112.957 87.0875 112.58 86.9141 112.268C86.7408 111.947 86.5068 111.705 86.2121 111.54C85.9175 111.367 85.6011 111.28 85.2631 111.28C84.9251 111.28 84.6131 111.362 84.3271 111.527C84.0411 111.692 83.8071 111.934 83.6251 112.255C83.4518 112.567 83.3651 112.94 83.3651 113.373C83.3651 113.806 83.4518 114.188 83.6251 114.517C83.8071 114.838 84.0411 115.085 84.3271 115.258C84.6218 115.431 84.9338 115.518 85.2631 115.518C85.6011 115.518 85.9175 115.436 86.2121 115.271C86.5068 115.098 86.7408 114.855 86.9141 114.543C87.0875 114.222 87.1741 113.841 87.1741 113.399ZM90.3167 113.373C90.3167 112.645 90.4597 111.999 90.7457 111.436C91.0404 110.873 91.4347 110.439 91.9287 110.136C92.4314 109.833 92.9904 109.681 93.6057 109.681C94.143 109.681 94.611 109.789 95.0097 110.006C95.417 110.223 95.742 110.496 95.9847 110.825V109.798H97.8177V117H95.9847V115.947C95.7507 116.285 95.4257 116.567 95.0097 116.792C94.6024 117.009 94.13 117.117 93.5927 117.117C92.986 117.117 92.4314 116.961 91.9287 116.649C91.4347 116.337 91.0404 115.899 90.7457 115.336C90.4597 114.764 90.3167 114.11 90.3167 113.373ZM95.9847 113.399C95.9847 112.957 95.898 112.58 95.7247 112.268C95.5514 111.947 95.3174 111.705 95.0227 111.54C94.728 111.367 94.4117 111.28 94.0737 111.28C93.7357 111.28 93.4237 111.362 93.1377 111.527C92.8517 111.692 92.6177 111.934 92.4357 112.255C92.2624 112.567 92.1757 112.94 92.1757 113.373C92.1757 113.806 92.2624 114.188 92.4357 114.517C92.6177 114.838 92.8517 115.085 93.1377 115.258C93.4324 115.431 93.7444 115.518 94.0737 115.518C94.4117 115.518 94.728 115.436 95.0227 115.271C95.3174 115.098 95.5514 114.855 95.7247 114.543C95.898 114.222 95.9847 113.841 95.9847 113.399ZM34.3621 135.399C34.3621 134.654 34.5138 134.004 34.8171 133.449C35.1204 132.886 35.5408 132.452 36.0781 132.149C36.6154 131.837 37.2308 131.681 37.9241 131.681C38.8168 131.681 39.5534 131.906 40.1341 132.357C40.7234 132.799 41.1178 133.423 41.3171 134.229H39.3541C39.2501 133.917 39.0724 133.674 38.8211 133.501C38.5784 133.319 38.2751 133.228 37.9111 133.228C37.3911 133.228 36.9794 133.419 36.6761 133.8C36.3728 134.173 36.2211 134.706 36.2211 135.399C36.2211 136.084 36.3728 136.617 36.6761 136.998C36.9794 137.371 37.3911 137.557 37.9111 137.557C38.6478 137.557 39.1288 137.228 39.3541 136.569H41.3171C41.1178 137.349 40.7234 137.969 40.1341 138.428C39.5448 138.887 38.8081 139.117 37.9241 139.117C37.2308 139.117 36.6154 138.965 36.0781 138.662C35.5408 138.35 35.1204 137.917 34.8171 137.362C34.5138 136.799 34.3621 136.144 34.3621 135.399ZM46.7064 131.694C47.2524 131.694 47.7378 131.815 48.1624 132.058C48.5871 132.292 48.9164 132.643 49.1504 133.111C49.3931 133.57 49.5144 134.125 49.5144 134.775V139H47.6944V135.022C47.6944 134.45 47.5514 134.012 47.2654 133.709C46.9794 133.397 46.5894 133.241 46.0954 133.241C45.5928 133.241 45.1941 133.397 44.8994 133.709C44.6134 134.012 44.4704 134.45 44.4704 135.022V139H42.6504V129.38H44.4704V132.695C44.7044 132.383 45.0164 132.14 45.4064 131.967C45.7964 131.785 46.2298 131.694 46.7064 131.694ZM57.9401 135.243C57.9401 135.503 57.9228 135.737 57.8881 135.945H52.6231C52.6665 136.465 52.8485 136.872 53.1691 137.167C53.4898 137.462 53.8841 137.609 54.3521 137.609C55.0281 137.609 55.5091 137.319 55.7951 136.738H57.7581C57.5501 137.431 57.1515 138.003 56.5621 138.454C55.9728 138.896 55.2491 139.117 54.3911 139.117C53.6978 139.117 53.0738 138.965 52.5191 138.662C51.9731 138.35 51.5441 137.912 51.2321 137.349C50.9288 136.786 50.7771 136.136 50.7771 135.399C50.7771 134.654 50.9288 133.999 51.2321 133.436C51.5355 132.873 51.9601 132.439 52.5061 132.136C53.0521 131.833 53.6805 131.681 54.3911 131.681C55.0758 131.681 55.6868 131.828 56.2241 132.123C56.7701 132.418 57.1905 132.838 57.4851 133.384C57.7885 133.921 57.9401 134.541 57.9401 135.243ZM56.0551 134.723C56.0465 134.255 55.8775 133.882 55.5481 133.605C55.2188 133.319 54.8158 133.176 54.3391 133.176C53.8885 133.176 53.5071 133.315 53.1951 133.592C52.8918 133.861 52.7055 134.238 52.6361 134.723H56.0551ZM62.0896 131.681C62.6269 131.681 63.0992 131.789 63.5066 132.006C63.9139 132.214 64.2346 132.487 64.4686 132.825V131.798H66.3016V139.052C66.3016 139.719 66.1672 140.313 65.8986 140.833C65.6299 141.362 65.2269 141.778 64.6896 142.081C64.1522 142.393 63.5022 142.549 62.7396 142.549C61.7169 142.549 60.8762 142.311 60.2176 141.834C59.5676 141.357 59.1992 140.707 59.1126 139.884H60.9196C61.0149 140.213 61.2186 140.473 61.5306 140.664C61.8512 140.863 62.2369 140.963 62.6876 140.963C63.2162 140.963 63.6452 140.803 63.9746 140.482C64.3039 140.17 64.4686 139.693 64.4686 139.052V137.934C64.2346 138.272 63.9096 138.554 63.4936 138.779C63.0862 139.004 62.6182 139.117 62.0896 139.117C61.4829 139.117 60.9282 138.961 60.4256 138.649C59.9229 138.337 59.5242 137.899 59.2296 137.336C58.9436 136.764 58.8006 136.11 58.8006 135.373C58.8006 134.645 58.9436 133.999 59.2296 133.436C59.5242 132.873 59.9186 132.439 60.4126 132.136C60.9152 131.833 61.4742 131.681 62.0896 131.681ZM64.4686 135.399C64.4686 134.957 64.3819 134.58 64.2086 134.268C64.0352 133.947 63.8012 133.705 63.5066 133.54C63.2119 133.367 62.8956 133.28 62.5576 133.28C62.2196 133.28 61.9076 133.362 61.6216 133.527C61.3356 133.692 61.1016 133.934 60.9196 134.255C60.7462 134.567 60.6596 134.94 60.6596 135.373C60.6596 135.806 60.7462 136.188 60.9196 136.517C61.1016 136.838 61.3356 137.085 61.6216 137.258C61.9162 137.431 62.2282 137.518 62.5576 137.518C62.8956 137.518 63.2119 137.436 63.5066 137.271C63.8012 137.098 64.0352 136.855 64.2086 136.543C64.3819 136.222 64.4686 135.841 64.4686 135.399ZM71.2771 139.117C70.5838 139.117 69.9598 138.965 69.4051 138.662C68.8505 138.35 68.4128 137.912 68.0921 137.349C67.7801 136.786 67.6241 136.136 67.6241 135.399C67.6241 134.662 67.7845 134.012 68.1051 133.449C68.4345 132.886 68.8808 132.452 69.4441 132.149C70.0075 131.837 70.6358 131.681 71.3291 131.681C72.0225 131.681 72.6508 131.837 73.2141 132.149C73.7775 132.452 74.2195 132.886 74.5401 133.449C74.8695 134.012 75.0341 134.662 75.0341 135.399C75.0341 136.136 74.8651 136.786 74.5271 137.349C74.1978 137.912 73.7471 138.35 73.1751 138.662C72.6118 138.965 71.9791 139.117 71.2771 139.117ZM71.2771 137.531C71.6065 137.531 71.9141 137.453 72.2001 137.297C72.4948 137.132 72.7288 136.89 72.9021 136.569C73.0755 136.248 73.1621 135.858 73.1621 135.399C73.1621 134.714 72.9801 134.19 72.6161 133.826C72.2608 133.453 71.8231 133.267 71.3031 133.267C70.7831 133.267 70.3455 133.453 69.9901 133.826C69.6435 134.19 69.4701 134.714 69.4701 135.399C69.4701 136.084 69.6391 136.612 69.9771 136.985C70.3238 137.349 70.7571 137.531 71.2771 137.531ZM83.1682 131.798V139H81.3352V138.09C81.1012 138.402 80.7935 138.649 80.4122 138.831C80.0395 139.004 79.6322 139.091 79.1902 139.091C78.6268 139.091 78.1285 138.974 77.6952 138.74C77.2618 138.497 76.9195 138.146 76.6682 137.687C76.4255 137.219 76.3042 136.664 76.3042 136.023V131.798H78.1242V135.763C78.1242 136.335 78.2672 136.777 78.5532 137.089C78.8392 137.392 79.2292 137.544 79.7232 137.544C80.2258 137.544 80.6202 137.392 80.9062 137.089C81.1922 136.777 81.3352 136.335 81.3352 135.763V131.798H83.1682Z" fill="white"/>
</svg>
