<svg width="45" height="45" viewBox="0 0 45 45" fill="none" xmlns="http://www.w3.org/2000/svg">
<rect width="45" height="45" fill="#EB0029"/>
<path d="M16.228 8.576V10.22H12.796V11.996H15.364V13.592H12.796V17H10.744V8.576H16.228Z" fill="#F2F2F2"/>
<path d="M29.728 17.084C28.936 17.084 28.208 16.9 27.544 16.532C26.888 16.164 26.364 15.652 25.972 14.996C25.588 14.332 25.396 13.588 25.396 12.764C25.396 11.94 25.588 11.2 25.972 10.544C26.364 9.888 26.888 9.376 27.544 9.008C28.208 8.64 28.936 8.456 29.728 8.456C30.52 8.456 31.244 8.64 31.9 9.008C32.564 9.376 33.084 9.888 33.46 10.544C33.844 11.2 34.036 11.94 34.036 12.764C34.036 13.588 33.844 14.332 33.46 14.996C33.076 15.652 32.556 16.164 31.9 16.532C31.244 16.9 30.52 17.084 29.728 17.084ZM29.728 15.212C30.4 15.212 30.936 14.988 31.336 14.54C31.744 14.092 31.948 13.5 31.948 12.764C31.948 12.02 31.744 11.428 31.336 10.988C30.936 10.54 30.4 10.316 29.728 10.316C29.048 10.316 28.504 10.536 28.096 10.976C27.696 11.416 27.496 12.012 27.496 12.764C27.496 13.508 27.696 14.104 28.096 14.552C28.504 14.992 29.048 15.212 29.728 15.212Z" fill="#F2F2F2"/>
<path d="M14.728 35.084C13.936 35.084 13.208 34.9 12.544 34.532C11.888 34.164 11.364 33.652 10.972 32.996C10.588 32.332 10.396 31.588 10.396 30.764C10.396 29.94 10.588 29.2 10.972 28.544C11.364 27.888 11.888 27.376 12.544 27.008C13.208 26.64 13.936 26.456 14.728 26.456C15.52 26.456 16.244 26.64 16.9 27.008C17.564 27.376 18.084 27.888 18.46 28.544C18.844 29.2 19.036 29.94 19.036 30.764C19.036 31.588 18.844 32.332 18.46 32.996C18.076 33.652 17.556 34.164 16.9 34.532C16.244 34.9 15.52 35.084 14.728 35.084ZM14.728 33.212C15.4 33.212 15.936 32.988 16.336 32.54C16.744 32.092 16.948 31.5 16.948 30.764C16.948 30.02 16.744 29.428 16.336 28.988C15.936 28.54 15.4 28.316 14.728 28.316C14.048 28.316 13.504 28.536 13.096 28.976C12.696 29.416 12.496 30.012 12.496 30.764C12.496 31.508 12.696 32.104 13.096 32.552C13.504 32.992 14.048 33.212 14.728 33.212Z" fill="#F2F2F2"/>
<path d="M28.9 26.576C29.788 26.576 30.564 26.752 31.228 27.104C31.892 27.456 32.404 27.952 32.764 28.592C33.132 29.224 33.316 29.956 33.316 30.788C33.316 31.612 33.132 32.344 32.764 32.984C32.404 33.624 31.888 34.12 31.216 34.472C30.552 34.824 29.78 35 28.9 35H25.744V26.576H28.9ZM28.768 33.224C29.544 33.224 30.148 33.012 30.58 32.588C31.012 32.164 31.228 31.564 31.228 30.788C31.228 30.012 31.012 29.408 30.58 28.976C30.148 28.544 29.544 28.328 28.768 28.328H27.796V33.224H28.768Z" fill="#F2F2F2"/>
</svg>
